<svg xmlns="http://www.w3.org/2000/svg" width="48" height="48" viewBox="0 0 48 48"><path d="M43.444 32.944c-3.181 0-6.248-.51-9.123-1.456a2.564 2.564 0 0 0-2.594.626l-5.622 5.635A38.552 38.552 0 0 1 9.264 20.92l5.622-5.635a2.564 2.564 0 0 0 .626-2.594 29.231 29.231 0 0 1-1.456-9.136A2.547 2.547 0 0 0 11.5 1H2.556A2.547 2.547 0 0 0 0 3.556C0 27.552 19.448 47 43.444 47A2.547 2.547 0 0 0 46 44.444V35.5a2.547 2.547 0 0 0-2.556-2.556zM42.667 25H48C48 11.747 37.253 1 24 1v5.333c10.307 0 18.667 8.36 18.667 18.667zM31.2 23H36c0-6.624-5.376-12-12-12v4.8c3.972 0 7.2 3.228 7.2 7.2z"/></svg>