<svg width="96" height="68" viewBox="0 0 96 68" xmlns="http://www.w3.org/2000/svg"><title>truck-fast</title><g fill="currentColor" fill-rule="nonzero"><path d="M49.7 49.3H8.9c-1.1 0-2 .9-2 2v6.1c0 1.1.9 2 2 2h4.5c.4 4.6 4.2 8.2 8.9 8.2s8.5-3.6 8.9-8.2h18.4c1.1 0 2-.9 2-2v-6.1c.1-1.1-.8-2-1.9-2zM22.4 63.4c-2.6 0-4.7-2.1-4.7-4.7s2.1-4.7 4.7-4.7 4.7 2.1 4.7 4.7-2.1 4.7-4.7 4.7zM92 41l-10.4-1.4-5.9-10.4a9.12 9.12 0 0 0-7.9-4.6H56.5c-1.1 0-2 .9-2 2v30.7c0 1.1.9 2 2 2h14.4c.4 4.6 4.2 8.2 8.9 8.2s8.5-3.6 8.9-8.2h2.8c2.2 0 4-1.8 4-4V45c0-2-1.5-3.7-3.5-4zm-17.7-1.6H61.4c-.2 0-.4-.2-.4-.4v-8.3c0-.2.2-.4.4-.4h6.5c1.2 0 2.4.7 3 1.7l3.9 6.7c0 .3-.1.7-.5.7zm5.5 24c-2.6 0-4.7-2.1-4.7-4.7s2.1-4.7 4.7-4.7 4.7 2.1 4.7 4.7-2.1 4.7-4.7 4.7zM7 44.5c0 1.1.9 2 2 2h40.8c1.1 0 2-.9 2-2V19.6c0-1.1-.9-2-2-2H32.3c-.6-2-1.6-3.9-2.9-5.5l.7-.7.2.2c.4.4 1 .4 1.4 0l.7-.7c.4-.4.4-1 0-1.4l-2.9-2.9c-.4-.4-1-.4-1.4 0l-.7.7c-.4.4-.4 1 0 1.4l.2.2-.8.8c-2.1-1.7-4.7-2.8-7.4-3.2V5.3h1.3c.5 0 1-.4 1-1V1.5c0-.5-.4-1-1-1H13c-.5 0-1 .4-1 1v2.8c0 .5.4 1 1 1h1.3v1.2C6.6 7.7.6 14.5.6 22.5c0 5.3 2.5 10 6.5 13v9H7zM3.3 22.4c0-7.4 6-13.5 13.5-13.5s13.5 6 13.5 13.5c0 7.4-6 13.5-13.5 13.5s-13.5-6-13.5-13.5z"/><path d="M16.3 12.9h.8c.1 0 .2-.1.2-.2v-2.4c0-.1-.1-.2-.2-.2h-.8c-.1 0-.2.1-.2.2v2.4c0 .1.1.2.2.2zm-3.6.9l.8-.3c.1 0 .1-.2.1-.3l-1-2.2c0-.1-.2-.1-.3-.1l-.8.3c-.1 0-.1.2-.1.3l.9 2.2c.1.1.3.1.4.1zM9.4 16c.1.1.2.1.3 0l.6-.6c.1-.1.1-.2 0-.3l-1.7-1.7c-.1-.1-.2-.1-.3 0l-.6.6c-.1.1-.1.2 0 .3L9.4 16zm-1.9 3.3c.1 0 .2 0 .3-.1l.3-.8c0-.1 0-.2-.1-.3l-2.2-.9c-.1 0-.2 0-.3.1l-.3.8c0 .1 0 .2.1.3l2.2.9zm-.3 3.6v-.8c0-.1-.1-.2-.2-.2H4.6c-.1 0-.2.1-.2.2v.8c0 .1.1.2.2.2H7c.1 0 .2-.1.2-.2zm.9 3.6l-.3-.8c0-.1-.2-.1-.3-.1l-2.2.9c-.1 0-.1.2-.1.3l.3.8c0 .1.2.1.3.1l2.2-.9c.1-.1.1-.2.1-.3zm1.6 2.4c-.1-.1-.2-.1-.3 0l-1.7 1.7c-.1.1-.1.2 0 .3l.6.6c.1.1.2.1.3 0l1.7-1.7c.1-.1.1-.2 0-.3l-.6-.6zm3 2.2c-.1 0-.2 0-.3.1l-.9 2.2c0 .1 0 .2.1.3l.8.3c.1 0 .2 0 .3-.1l.9-2.2c0-.1 0-.2-.1-.3l-.8-.3zm4.5.9h-.8c-.1 0-.2.1-.2.2v2.4c0 .1.1.2.2.2h.8c.1 0 .2-.1.2-.2v-2.4c0-.1-.1-.2-.2-.2zm3.6-.9l-.8.3c-.1 0-.1.2-.1.3l.9 2.2c0 .1.2.1.3.1l.8-.3c.1 0 .1-.2.1-.3l-.9-2.2c-.1-.1-.2-.1-.3-.1zm3.3-2.2c-.1-.1-.2-.1-.3 0l-.6.6c-.1.1-.1.2 0 .3l1.7 1.7c.1.1.2.1.3 0l.6-.6c.1-.1.1-.2 0-.3l-1.7-1.7zm1.9-3.3c-.1 0-.2 0-.3.1l-.3.8c0 .1 0 .2.1.3l2.2.9c.1 0 .2 0 .3-.1l.3-.8c0-.1 0-.2-.1-.3l-2.2-.9zm.3-3.6v.8c0 .1.1.2.2.2h2.4c.1 0 .2-.1.2-.2V22c0-.1-.1-.2-.2-.2h-2.4c-.1 0-.2.1-.2.2zm-.9-3.6l.3.8c0 .1.2.1.3.1l2.2-.9c.1 0 .1-.2.1-.3l-.3-.8c0-.1-.2-.1-.3-.1l-2.2.9c-.1 0-.1.2-.1.3zM23.8 16c.1.1.2.1.3 0l1.7-1.7c.1-.1.1-.2 0-.3l-.6-.6c-.1-.1-.2-.1-.3 0l-1.7 1.7c-.1.1-.1.2 0 .3l.6.6zM20 13.4l.8.3c.1 0 .2 0 .3-.1l.9-2.2c0-.1 0-.2-.1-.3l-.8-.3c-.1 0-.2 0-.3.1l-.9 2.2c-.1.2 0 .3.1.3zM16.7 25c1.4 0 2.5-1.1 2.5-2.5 0-.5-.1-.9-.4-1.3l3.9-3.9c.1-.1.1-.2 0-.3l-.6-.6c-.1-.1-.2-.1-.3 0L18 20.3c-.4-.2-.8-.4-1.3-.4-1.4 0-2.5 1.1-2.5 2.5s1.1 2.6 2.5 2.6z"/></g></svg>