<svg width="64" height="64" viewBox="0 0 64 64" xmlns="http://www.w3.org/2000/svg"><title>wildcat-icon-black</title><path d="M32 0l27.713 16v32L32 64 4.287 48V16L32 0zM21.622 47.6h6.062l3.958-16.42c.056-.113.14-.646.253-1.6.112.841.196 1.389.252 1.641L36.273 47.6h6.063l6.358-29.472h-6.61l-3.032 15.747-.084.505c-.028.168-.056.35-.084.547a4.82 4.82 0 0 1-.084.464c0-.085-.028-.31-.085-.674a14.6 14.6 0 0 0-.168-.926l-3.79-15.663h-5.599l-3.747 15.62a5.402 5.402 0 0 0-.126.843 7.235 7.235 0 0 1-.085.715 5.188 5.188 0 0 1-.084-.673 4.348 4.348 0 0 0-.126-.8l-3.074-15.705h-6.61L21.622 47.6z" fill="currentColor" fill-rule="evenodd"/></svg>