<svg version="1" xmlns="http://www.w3.org/2000/svg" width="682.667" height="682.667" viewBox="0 0 512.000000 512.000000"><path d="M145 64L34.5 127.9V384.2l110.8 63.9L256 512l110.8-63.9 110.7-63.9V127.9l-110-63.5C307 29.4 257.1.7 256.5.5 256 .3 205.8 28.9 145 64zm42.7 144c6.8 34.4 12.7 65 13.1 68l.8 5.5.7-5.3c.5-2.9 7.5-33.4 15.7-67.7 8.3-34.4 15-62.7 15-63 0-.3 10.1-.5 22.5-.5h22.4l1 3.7c1.8 6.8 29.9 123.7 30.8 128.3l.9 4.5 1.3-7.3c.7-4.1 6.6-34.7 13-68l11.7-60.7 26.2-.3c20.6-.2 26.2 0 26.2 1 0 .7-11.3 53.5-25 117.2-13.8 63.7-25 116.3-25 116.8 0 .4-11 .8-24.3.8h-24.4L274 316.7c-8.9-35.3-16.8-67.4-17.5-71.2l-1.2-7-.8 4c-1.2 6.1-32.6 136.9-33.2 137.7-.2.5-11.2.8-24.3.8-21.9 0-23.9-.1-24.4-1.8-.9-3.3-49.6-231.9-49.6-233.1 0-.8 7-1.1 26.2-.9l26.3.3 12.2 62.5z"/></svg>