<svg width="234" height="80" viewBox="0 0 234 80" xmlns="http://www.w3.org/2000/svg"><title>wildcat-logo-white</title><g fill="#FFF" fill-rule="evenodd"><path d="M34.778 2.547l32.099 18.532v37.064L34.778 76.676 2.68 58.143V21.08L34.778 2.547zm-12.02 55.132h7.022l4.584-19.018c.065-.13.162-.748.292-1.853.13.975.228 1.609.293 1.901l4.78 18.97h7.021l7.364-34.136h-7.656l-3.511 18.239-.098.585c-.032.195-.065.406-.097.634a5.584 5.584 0 0 1-.098.536c0-.097-.032-.357-.097-.78a16.91 16.91 0 0 0-.196-1.073l-4.388-18.14h-6.486l-4.34 18.091c-.066.26-.114.586-.147.976a8.38 8.38 0 0 1-.097.829c-.033-.13-.065-.39-.098-.78a5.036 5.036 0 0 0-.146-.927l-3.56-18.19h-7.656l7.315 34.136zM81.284 72.676v-21h10.23c2.52 0 4.345.63 5.475 1.89 1.13 1.26 1.695 2.89 1.695 4.89 0 1.24-.34 2.45-1.02 3.63-.68 1.18-1.61 2.01-2.79 2.49l3.93 8.1h-5.1l-3.81-7.41h-4.05v7.41h-4.56zm4.56-11.73h5.73c1.58 0 2.37-.83 2.37-2.49 0-.7-.185-1.285-.555-1.755-.37-.47-.975-.705-1.815-.705h-5.73v4.95zm25.019 11.73v-21h15.09v4.32h-10.53v3.69h5.88v4.32h-5.88v4.32h11.13v4.35h-15.69zm27.598 0v-21h9.3c2.5 0 4.345.65 5.535 1.95 1.19 1.3 1.785 2.9 1.785 4.8 0 .82-.14 1.615-.42 2.385-.28.77-.7 1.485-1.26 2.145-.56.66-1.33 1.19-2.31 1.59-.98.4-2.09.6-3.33.6h-4.74v7.53h-4.56zm9.48-11.82c.8 0 1.4-.24 1.8-.72.4-.48.6-1.05.6-1.71 0-.64-.19-1.205-.57-1.695-.38-.49-.99-.735-1.83-.735h-4.92v4.86h4.92zm29.61 11.82l-1.56-4.08h-7.89l-1.56 4.08h-4.98l8.28-21h4.38l8.31 21h-4.98zm-3.09-8.28l-1.8-4.53c-.28-.68-.49-1.27-.63-1.77-.08.34-.29.93-.63 1.77l-1.8 4.53h4.86zm19.378 8.28v-21h4.56v21h-4.56zm17.67 0v-21h10.23c2.52 0 4.344.63 5.474 1.89 1.13 1.26 1.695 2.89 1.695 4.89 0 1.24-.34 2.45-1.02 3.63-.68 1.18-1.61 2.01-2.79 2.49l3.93 8.1h-5.1l-3.81-7.41h-4.05v7.41h-4.56zm4.56-11.73h5.73c1.58 0 2.37-.83 2.37-2.49 0-.7-.186-1.285-.556-1.755-.37-.47-.975-.705-1.815-.705h-5.73v4.95zM82.835 45l-7.2-33.6h7.536l3.504 17.904c.064.224.112.528.144.912.032.384.064.64.096.768.032-.16.064-.432.096-.816.032-.384.08-.704.144-.96L91.427 11.4h6.384l4.32 17.856c.064.288.128.64.192 1.056.064.416.096.672.096.768.032-.128.064-.304.096-.528.032-.224.064-.432.096-.624l.096-.576 3.456-17.952h7.536L106.451 45H99.54l-4.704-18.672c-.064-.288-.16-.912-.288-1.872-.128 1.088-.224 1.696-.288 1.824L89.747 45h-6.912zm37.196-26.88c-1.088 0-2.032-.392-2.832-1.176-.8-.784-1.2-1.72-1.2-2.808 0-1.088.392-2.016 1.176-2.784.784-.768 1.736-1.152 2.856-1.152 1.12 0 2.064.376 2.832 1.128.768.752 1.152 1.688 1.152 2.808 0 1.088-.384 2.024-1.152 2.808-.768.784-1.712 1.176-2.832 1.176zM116.527 45V20.472h6.96V45h-6.96zm12.188 0V13.608l6.96-3.264V45h-6.96zm21.02.576c-3.104 0-5.56-1.104-7.368-3.312-1.808-2.208-2.712-5.392-2.712-9.552 0-3.872.96-6.976 2.88-9.312 1.92-2.336 4.352-3.504 7.296-3.504 2.112 0 3.744.816 4.896 2.448v-8.88l6.96-3.12V45h-6.96v-2.016c-.896 1.728-2.56 2.592-4.992 2.592zm1.2-6.72c1.792 0 3.056-.512 3.792-1.536v-9.072c-.864-1.088-2.128-1.632-3.792-1.632-1.376 0-2.44.528-3.192 1.584-.752 1.056-1.128 2.56-1.128 4.512 0 4.096 1.44 6.144 4.32 6.144zm25.964 6.72c-3.488 0-6.272-1.136-8.352-3.408-2.08-2.272-3.12-5.408-3.12-9.408 0-3.936 1.048-7.064 3.144-9.384 2.096-2.32 4.872-3.48 8.328-3.48 5.568 0 9.152 2.56 10.752 7.68l-6.624 2.16c-.8-2.112-2.144-3.168-4.032-3.168-1.312 0-2.392.576-3.24 1.728-.848 1.152-1.272 2.64-1.272 4.464 0 1.824.416 3.304 1.248 4.44.832 1.136 1.888 1.704 3.168 1.704 2.016 0 3.392-1.184 4.128-3.552l6.672 1.92c-1.632 5.536-5.232 8.304-10.8 8.304zM205.167 45v-1.824c-1.472 1.6-3.504 2.4-6.096 2.4-2.72 0-4.936-.696-6.648-2.088-1.712-1.392-2.568-3.384-2.568-5.976 0-2.528.992-4.472 2.976-5.832 1.984-1.36 4.304-2.04 6.96-2.04 2.304 0 4.096.288 5.376.864V29.16c0-1.12-.352-1.976-1.056-2.568-.704-.592-1.68-.888-2.928-.888-2.656 0-5.28.864-7.872 2.592l-2.16-5.328c3.008-2.048 6.512-3.072 10.512-3.072 6.944 0 10.416 3.2 10.416 9.6V45h-6.912zm-4.752-5.28c1.728 0 3.312-.576 4.752-1.728v-2.208c-1.28-.384-2.672-.576-4.176-.576-2.88 0-4.32.784-4.32 2.352 0 1.44 1.248 2.16 3.744 2.16zm23.516 5.856c-4.128 0-6.192-2.24-6.192-6.72V26.568h-3.36v-6.096h3.36v-6.816l6.912-3.312v10.128h5.328v6.096h-5.328v11.616c0 .448.136.792.408 1.032.272.24.6.36.984.36 1.408 0 2.816-.32 4.224-.96l-.768 5.856c-1.504.736-3.36 1.104-5.568 1.104z"/></g></svg>